<svg width="45" height="45" viewBox="0 0 45 45" fill="none" xmlns="http://www.w3.org/2000/svg">
<path d="M22.5073 0C13.1142 0 10.3667 0.00966816 9.83232 0.0536143C7.90484 0.214457 6.70511 0.517686 5.39815 1.16897C4.39091 1.66908 3.59636 2.24917 2.81324 3.06217C1.38499 4.54403 0.520127 6.3678 0.207231 8.53523C0.0551768 9.5873 0.0103518 9.80263 0.00156253 15.1781C-0.00195316 16.9703 0.00156253 19.3284 0.00156253 22.4917C0.00156253 31.8803 0.0121096 34.6252 0.0569347 35.1587C0.212504 37.0352 0.506943 38.2156 1.1301 39.5067C2.32104 41.9783 4.59482 43.8337 7.2729 44.5263C8.20016 44.7653 9.22499 44.8963 10.5399 44.9587C11.0971 44.9833 16.7767 45 22.4598 45C28.1429 45 33.8252 44.993 34.3692 44.9657C35.8924 44.8937 36.7766 44.775 37.754 44.5227C40.4496 43.8266 42.6821 41.9994 43.8968 39.4927C44.5076 38.2323 44.817 37.0071 44.9576 35.229C44.9884 34.8414 45.0007 28.6591 45.0007 22.4855C45.0007 16.3111 44.9866 10.1401 44.9567 9.75253C44.8152 7.94547 44.505 6.72992 43.8748 5.44581C43.3571 4.39462 42.7832 3.60886 41.9491 2.8064C40.4602 1.3843 38.6399 0.518565 36.4707 0.205668C35.4187 0.0544932 35.2095 0.00966816 29.8313 0H22.5073Z" fill="url(#paint0_radial_102_29)"/>
<path d="M22.5073 0C13.1142 0 10.3667 0.00966816 9.83232 0.0536143C7.90484 0.214457 6.70511 0.517686 5.39815 1.16897C4.39091 1.66908 3.59636 2.24917 2.81324 3.06217C1.38499 4.54403 0.520127 6.3678 0.207231 8.53523C0.0551768 9.5873 0.0103518 9.80263 0.00156253 15.1781C-0.00195316 16.9703 0.00156253 19.3284 0.00156253 22.4917C0.00156253 31.8803 0.0121096 34.6252 0.0569347 35.1587C0.212504 37.0352 0.506943 38.2156 1.1301 39.5067C2.32104 41.9783 4.59482 43.8337 7.2729 44.5263C8.20016 44.7653 9.22499 44.8963 10.5399 44.9587C11.0971 44.9833 16.7767 45 22.4598 45C28.1429 45 33.8252 44.993 34.3692 44.9657C35.8924 44.8937 36.7766 44.775 37.754 44.5227C40.4496 43.8266 42.6821 41.9994 43.8968 39.4927C44.5076 38.2323 44.817 37.0071 44.9576 35.229C44.9884 34.8414 45.0007 28.6591 45.0007 22.4855C45.0007 16.3111 44.9866 10.1401 44.9567 9.75253C44.8152 7.94547 44.505 6.72992 43.8748 5.44581C43.3571 4.39462 42.7832 3.60886 41.9491 2.8064C40.4602 1.3843 38.6399 0.518565 36.4707 0.205668C35.4187 0.0544932 35.2095 0.00966816 29.8313 0H22.5073Z" fill="url(#paint1_radial_102_29)"/>
<path d="M22.5073 0C13.1142 0 10.3667 0.00966816 9.83232 0.0536143C7.90484 0.214457 6.70511 0.517686 5.39815 1.16897C4.39091 1.66908 3.59636 2.24917 2.81324 3.06217C1.38499 4.54403 0.520127 6.3678 0.207231 8.53523C0.0551768 9.5873 0.0103518 9.80263 0.00156253 15.1781C-0.00195316 16.9703 0.00156253 19.3284 0.00156253 22.4917C0.00156253 31.8803 0.0121096 34.6252 0.0569347 35.1587C0.212504 37.0352 0.506943 38.2156 1.1301 39.5067C2.32104 41.9783 4.59482 43.8337 7.2729 44.5263C8.20016 44.7653 9.22499 44.8963 10.5399 44.9587C11.0971 44.9833 16.7767 45 22.4598 45C28.1429 45 33.8252 44.993 34.3692 44.9657C35.8924 44.8937 36.7766 44.775 37.754 44.5227C40.4496 43.8266 42.6821 41.9994 43.8968 39.4927C44.5076 38.2323 44.817 37.0071 44.9576 35.229C44.9884 34.8414 45.0007 28.6591 45.0007 22.4855C45.0007 16.3111 44.9866 10.1401 44.9567 9.75253C44.8152 7.94547 44.505 6.72992 43.8748 5.44581C43.3571 4.39462 42.7832 3.60886 41.9491 2.8064C40.4602 1.3843 38.6399 0.518565 36.4707 0.205668C35.4187 0.0544932 35.2095 0.00966816 29.8313 0H22.5073Z" fill="url(#paint2_radial_102_29)"/>
<path d="M22.5073 0C13.1142 0 10.3667 0.00966816 9.83232 0.0536143C7.90484 0.214457 6.70511 0.517686 5.39815 1.16897C4.39091 1.66908 3.59636 2.24917 2.81324 3.06217C1.38499 4.54403 0.520127 6.3678 0.207231 8.53523C0.0551768 9.5873 0.0103518 9.80263 0.00156253 15.1781C-0.00195316 16.9703 0.00156253 19.3284 0.00156253 22.4917C0.00156253 31.8803 0.0121096 34.6252 0.0569347 35.1587C0.212504 37.0352 0.506943 38.2156 1.1301 39.5067C2.32104 41.9783 4.59482 43.8337 7.2729 44.5263C8.20016 44.7653 9.22499 44.8963 10.5399 44.9587C11.0971 44.9833 16.7767 45 22.4598 45C28.1429 45 33.8252 44.993 34.3692 44.9657C35.8924 44.8937 36.7766 44.775 37.754 44.5227C40.4496 43.8266 42.6821 41.9994 43.8968 39.4927C44.5076 38.2323 44.817 37.0071 44.9576 35.229C44.9884 34.8414 45.0007 28.6591 45.0007 22.4855C45.0007 16.3111 44.9866 10.1401 44.9567 9.75253C44.8152 7.94547 44.505 6.72992 43.8748 5.44581C43.3571 4.39462 42.7832 3.60886 41.9491 2.8064C40.4602 1.3843 38.6399 0.518565 36.4707 0.205668C35.4187 0.0544932 35.2095 0.00966816 29.8313 0H22.5073Z" fill="url(#paint3_radial_102_29)"/>
<path d="M22.5089 5.77795C17.9649 5.77795 17.3945 5.79817 15.6102 5.87903C13.8287 5.96077 12.6131 6.24203 11.5496 6.656C10.4492 7.08316 9.5158 7.65446 8.58589 8.58348C7.65511 9.5125 7.08381 10.4459 6.6549 11.5446C6.24005 12.6081 5.95791 13.8236 5.87793 15.6026C5.79795 17.3859 5.77686 17.9563 5.77686 22.4968C5.77686 27.0374 5.79707 27.606 5.87793 29.3894C5.95967 31.1692 6.24181 32.3838 6.6549 33.4473C7.08294 34.5469 7.65424 35.4794 8.58502 36.4093C9.51492 37.3392 10.4483 37.9123 11.5479 38.3394C12.6122 38.7525 13.8287 39.0347 15.6094 39.1164C17.3945 39.1973 17.964 39.2175 22.508 39.2175C27.0521 39.2175 27.6207 39.1973 29.4058 39.1164C31.1874 39.0347 32.4047 38.7534 33.4691 38.3394C34.5695 37.9123 35.5012 37.3401 36.4311 36.4102C37.3618 35.4812 37.9331 34.5478 38.3621 33.4491C38.7734 32.3856 39.0555 31.1701 39.139 29.3911C39.219 27.6078 39.2401 27.0391 39.2401 22.4986C39.2401 17.9581 39.219 17.3877 39.139 15.6043C39.0555 13.8245 38.7734 12.6098 38.3621 11.5463C37.9331 10.4468 37.3618 9.51426 36.4311 8.58436C35.5003 7.65446 34.5695 7.08316 33.4682 6.656C32.4012 6.24291 31.1848 5.96077 29.4041 5.87903C27.619 5.79817 27.0512 5.77795 22.5054 5.77795H22.5089ZM21.0086 8.7909C21.4542 8.79002 21.9508 8.7909 22.5098 8.7909C26.9774 8.7909 27.5065 8.80672 29.2705 8.88671C30.9018 8.96141 31.7868 9.23388 32.3766 9.4624C33.1571 9.76563 33.7143 10.1277 34.2997 10.7131C34.885 11.2985 35.248 11.8557 35.5521 12.6362C35.7815 13.2251 36.054 14.1093 36.1287 15.7397C36.2087 17.5019 36.2263 18.0319 36.2263 22.4933C36.2263 26.9556 36.2087 27.4847 36.1287 29.247C36.054 30.8774 35.7815 31.7616 35.5521 32.3504C35.2489 33.1309 34.8859 33.6864 34.2997 34.2709C33.7143 34.8563 33.158 35.2184 32.3766 35.5216C31.7877 35.7519 30.9018 36.0235 29.2705 36.0973C27.5065 36.1773 26.9765 36.1949 22.5098 36.1949C18.0422 36.1949 17.5122 36.1773 15.7491 36.0973C14.1178 36.0217 13.2328 35.7501 12.6421 35.5207C11.8616 35.2175 11.3035 34.8554 10.7182 34.27C10.1328 33.6847 9.7698 33.1292 9.4657 32.3487C9.2363 31.7598 8.96383 30.8756 8.88912 29.2452C8.80914 27.483 8.79332 26.953 8.79332 22.4889C8.79332 18.024 8.80914 17.4975 8.88912 15.7353C8.96383 14.1049 9.2363 13.2207 9.4657 12.6309C9.76892 11.8504 10.1319 11.2932 10.7182 10.7078C11.3035 10.1225 11.8616 9.76036 12.6421 9.45625C13.2319 9.22597 14.1178 8.95438 15.7491 8.87967C17.2925 8.81024 17.8911 8.78915 21.0095 8.78563L21.0086 8.7909ZM31.4405 11.5674C30.3322 11.5674 29.4331 12.4648 29.4331 13.5731C29.4331 14.6806 30.3322 15.5797 31.4405 15.5797C32.5489 15.5797 33.448 14.6814 33.448 13.5731C33.448 12.4648 32.5489 11.5665 31.4405 11.5674ZM22.5089 13.9115C17.7636 13.9115 13.9166 17.7559 13.9166 22.4977C13.9166 27.2395 17.7636 31.0822 22.5089 31.0822C27.2542 31.0822 31.0995 27.2395 31.0995 22.4977C31.0995 17.7559 27.2542 13.9115 22.5089 13.9115ZM22.5089 16.9245C25.5887 16.9245 28.0866 19.4197 28.0866 22.4977C28.0866 25.5757 25.5895 28.071 22.5089 28.071C19.4283 28.071 16.9313 25.5757 16.9313 22.4977C16.9321 19.4188 19.4292 16.9245 22.5089 16.9245Z" fill="white"/>
<defs>
<radialGradient id="paint0_radial_102_29" cx="0" cy="0" r="1" gradientUnits="userSpaceOnUse" gradientTransform="translate(43.5479 21.0928) rotate(164.251) scale(28.7531 20.7152)">
<stop stop-color="#FF005F"/>
<stop offset="1" stop-color="#FC01D8"/>
</radialGradient>
<radialGradient id="paint1_radial_102_29" cx="0" cy="0" r="1" gradientUnits="userSpaceOnUse" gradientTransform="translate(11.9529 48.4669) rotate(-90) scale(35.9206 38.1111)">
<stop stop-color="#FFCC00"/>
<stop offset="0.1242" stop-color="#FFCC00"/>
<stop offset="0.5672" stop-color="#FE4A05"/>
<stop offset="0.6942" stop-color="#FF0F3F"/>
<stop offset="1" stop-color="#FE0657" stop-opacity="0"/>
</radialGradient>
<radialGradient id="paint2_radial_102_29" cx="0" cy="0" r="1" gradientUnits="userSpaceOnUse" gradientTransform="translate(23.637 44.3661) rotate(-59.8697) scale(14.8535 19.3376)">
<stop stop-color="#FFCC00"/>
<stop offset="1" stop-color="#FFCC00" stop-opacity="0"/>
</radialGradient>
<radialGradient id="paint3_radial_102_29" cx="0" cy="0" r="1" gradientUnits="userSpaceOnUse" gradientTransform="translate(6.10557 1.8339) rotate(164.274) scale(28.434 9.68753)">
<stop stop-color="#780CFF"/>
<stop offset="1" stop-color="#820BFF" stop-opacity="0"/>
</radialGradient>
</defs>
</svg>
