<svg width="47" height="38" viewBox="0 0 47 38" fill="none" xmlns="http://www.w3.org/2000/svg">
<path d="M14.7806 37.8202C32.5165 37.8202 42.2172 23.2682 42.2172 10.649C42.2172 10.2355 42.2172 9.82406 42.1891 9.41261C44.0761 8.06136 45.7052 6.38823 47 4.47151C45.2401 5.24382 43.3732 5.7503 41.4615 5.97406C43.4745 4.78064 44.9811 2.90359 45.7009 0.692241C43.808 1.80455 41.7371 2.58843 39.5777 3.01006C38.1238 1.4791 36.2009 0.465349 34.1066 0.125679C32.0124 -0.213991 29.8634 0.139357 27.9924 1.13104C26.1213 2.12273 24.6324 3.69747 23.7561 5.61158C22.8798 7.52569 22.6649 9.67246 23.1447 11.7197C19.3109 11.5293 15.5604 10.5427 12.1367 8.82373C8.71288 7.1048 5.69239 4.69203 3.27127 1.74206C2.03817 3.84433 1.66047 6.33299 2.21508 8.70135C2.7697 11.0697 4.21492 13.1397 6.25651 14.4899C4.72199 14.4448 3.22093 14.0349 1.88 13.2946V13.4155C1.88059 15.6203 2.65127 17.7571 4.06132 19.4633C5.47138 21.1696 7.434 22.3402 9.61627 22.7768C8.19662 23.1602 6.7071 23.2162 5.26216 22.9406C5.87834 24.8381 7.07797 26.4975 8.69328 27.6865C10.3086 28.8756 12.2588 29.535 14.2711 29.5724C10.8565 32.23 6.6384 33.6728 2.29547 33.6684C1.52825 33.667 0.76178 33.6209 0 33.5306C4.4098 36.3332 9.54085 37.8197 14.7806 37.8128" fill="#1DA1F2"/>
</svg>
